<svg xmlns="http://www.w3.org/2000/svg" xmlns:xlink="http://www.w3.org/1999/xlink" version="1.1" width="1000" height="1000" viewBox="0 0 1000 1000" xml:space="preserve">
<desc>Created with Fabric.js 3.5.0</desc>
<defs>
</defs>
<rect x="0" y="0" width="100%" height="100%" fill="#ffffff"/>
<g transform="matrix(3.1345 0 0 3.1345 500.0028 500.0028)" id="161834">
<path style="stroke: none; stroke-width: 1; stroke-dasharray: none; stroke-linecap: butt; stroke-dashoffset: 0; stroke-linejoin: miter; stroke-miterlimit: 4; is-custom-font: none; font-file-url: none; fill: rgb(0,0,0); fill-rule: evenodd; opacity: 1;" vector-effect="non-scaling-stroke" transform=" translate(-61.435, -60.5055)" d="M 105.5 104.64 H 99.44 v 9.53 A 6.81 6.81 0 0 1 92.65 121 h -4 a 6.82 6.82 0 0 1 -6.79 -6.79 v -9.53 H 40.82 v 9.53 A 6.82 6.82 0 0 1 34 121 H 30 a 6.81 6.81 0 0 1 -6.78 -6.79 v -9.53 H 18.1 c -3.54 -0.06 -5.24 -2 -5.5 -5.29 V 21.52 c -2 0.2 -2.95 0.66 -3.43 1.68 V 45.45 H 4.87 A 4.88 4.88 0 0 1 0 40.58 V 27.44 a 4.89 4.89 0 0 1 4.73 -4.87 c 0.41 -3.82 2.06 -4.93 8 -5.21 Q 14 7.36 26.36 2.57 C 44.09 -0.68 77.73 -1 96.52 2.57 c 8.28 3.19 12.8 8.12 13.62 14.79 c 6 0.3 7.61 1.42 8 5.21 a 4.89 4.89 0 0 1 4.73 4.87 V 40.58 A 4.88 4.88 0 0 1 118 45.45 h -4.3 V 23.14 c -0.48 -1 -1.47 -1.44 -3.43 -1.63 V 98.59 c 0 4.46 -1.44 6 -4.78 6 Z M 16.13 84.87 l 0.28 -6.69 c 0.16 -1.17 0.78 -1.69 1.89 -1.5 A 129.9 129.9 0 0 1 34.39 86.85 c 1.09 0.72 0.66 2.11 -0.78 1.85 L 18.48 87.6 a 2.74 2.74 0 0 1 -2.35 -2.73 Z M 52 93.45 H 71.3 a 0.94 0.94 0 0 1 0.94 0.94 v 3.24 a 0.94 0.94 0 0 1 -0.94 0.94 H 52 a 0.94 0.94 0 0 1 -0.94 -0.94 V 94.39 a 0.94 0.94 0 0 1 0.94 -0.94 Z m 50.35 0 A 2.51 2.51 0 1 1 99.82 96 a 2.51 2.51 0 0 1 2.5 -2.51 Z m -82.65 0 A 2.51 2.51 0 1 1 17.16 96 a 2.51 2.51 0 0 1 2.51 -2.51 Z m 87.08 -8.63 l -0.28 -6.69 c -0.16 -1.17 -0.78 -1.69 -1.88 -1.5 a 129.28 129.28 0 0 0 -16.1 10.17 c -1.09 0.72 -0.66 2.11 0.78 1.85 l 15.13 -1.1 a 2.73 2.73 0 0 0 2.35 -2.73 Z M 48.19 6.11 h 26.5 a 1.63 1.63 0 0 1 1.62 1.62 V 12 a 1.63 1.63 0 0 1 -1.62 1.62 H 48.19 A 1.63 1.63 0 0 1 46.57 12 V 7.73 a 1.63 1.63 0 0 1 1.62 -1.62 Z M 20.32 18.91 H 102.2 a 2 2 0 0 1 2 2 V 64.09 c 0 1.08 -0.89 1.69 -2 2 c -28.09 8.53 -53.8 8.18 -81.88 0 c -1.11 -0.3 -2 -0.9 -2 -2 V 20.89 a 2 2 0 0 1 2 -2 Z" stroke-linecap="round"/>
</g>
</svg>